<?xml version="1.0" encoding="utf-8"?>
<!-- Generator: Adobe Illustrator 19.0.0, SVG Export Plug-In . SVG Version: 6.00 Build 0)  -->
<svg version="1.1" id="Layer_1" xmlns="http://www.w3.org/2000/svg" xmlns:xlink="http://www.w3.org/1999/xlink" x="0px" y="0px"
	 viewBox="427 -267 2134.4 1334" style="enable-background:new 427 -267 2134.4 1334;" xml:space="preserve">
<style type="text/css">
	.st0{fill:url(#SVGID_1_);}
	.st1{opacity:4.000000e-002;}
	.st2{fill:#FFFFFF;}
</style>
<linearGradient id="SVGID_1_" gradientUnits="userSpaceOnUse" x1="847.278" y1="-32.0722" x2="2021.2314" y2="1141.8809">
	<stop  offset="0" style="stop-color:#FF6138"/>
	<stop  offset="1" style="stop-color:#FF8871"/>
</linearGradient>
<path class="st0" d="M2561.2,1068.2V226.1c0-116.7-233.3-336.8-615.2-336.8s-373.4-155.1-373.4-155.1H427.2v1334H2561.2z"/>
<g class="st1">
	<rect id="XMLID_3_" x="438" y="678.8" class="st2" width="143.7" height="45.9"/>
	<rect id="XMLID_6_" x="438" y="749.3" class="st2" width="143.7" height="45.9"/>
	<rect id="XMLID_7_" x="438" y="819.9" class="st2" width="143.7" height="45.9"/>
	<rect id="XMLID_5_" x="438" y="890.5" class="st2" width="143.7" height="45.9"/>
	<rect id="XMLID_2_" x="438" y="961.1" class="st2" width="143.7" height="45.9"/>
	<rect id="XMLID_88_" x="1511.8" y="608.2" class="st2" width="143.7" height="44.1"/>
	<rect id="XMLID_87_" x="1511.8" y="678.8" class="st2" width="143.7" height="45.9"/>
	<rect id="XMLID_86_" x="1511.8" y="749.3" class="st2" width="143.7" height="45.9"/>
	<rect id="XMLID_85_" x="1511.8" y="819.9" class="st2" width="143.7" height="45.9"/>
	<rect id="XMLID_84_" x="1511.8" y="890.5" class="st2" width="143.7" height="45.9"/>
	<rect id="XMLID_83_" x="1511.8" y="961.1" class="st2" width="143.7" height="45.9"/>
	<rect id="XMLID_82_" x="1511.8" y="184.6" class="st2" width="143.7" height="44.1"/>
	<rect id="XMLID_81_" x="1511.8" y="255.2" class="st2" width="143.7" height="44.1"/>
	<rect id="XMLID_80_" x="1511.8" y="325.8" class="st2" width="143.7" height="45"/>
	<rect id="XMLID_79_" x="1511.8" y="396.4" class="st2" width="143.7" height="45.9"/>
	<rect id="XMLID_78_" x="1511.8" y="467" class="st2" width="143.7" height="45.9"/>
	<rect id="XMLID_77_" x="1511.8" y="537.6" class="st2" width="143.7" height="45.9"/>
	<rect id="XMLID_124_" x="2227.8" y="608.2" class="st2" width="143.7" height="44.1"/>
	<rect id="XMLID_123_" x="2227.8" y="678.8" class="st2" width="143.7" height="45.9"/>
	<rect id="XMLID_122_" x="2227.8" y="749.3" class="st2" width="143.7" height="45.9"/>
	<rect id="XMLID_121_" x="2227.8" y="819.9" class="st2" width="143.7" height="45.9"/>
	<rect id="XMLID_120_" x="2227.8" y="890.5" class="st2" width="143.7" height="45.9"/>
	<rect id="XMLID_119_" x="2227.8" y="961.1" class="st2" width="143.7" height="45.9"/>
	<rect id="XMLID_118_" x="2227.8" y="255.2" class="st2" width="143.7" height="44.1"/>
	<rect id="XMLID_117_" x="2227.8" y="325.8" class="st2" width="143.7" height="45"/>
	<rect id="XMLID_116_" x="2227.8" y="396.4" class="st2" width="143.7" height="45.9"/>
	<rect id="XMLID_115_" x="2227.8" y="467" class="st2" width="143.7" height="45.9"/>
	<rect id="XMLID_114_" x="2227.8" y="537.6" class="st2" width="143.7" height="45.9"/>
	<rect id="XMLID_76_" x="1332.9" y="607.3" class="st2" width="143.7" height="44.1"/>
	<rect id="XMLID_75_" x="1332.9" y="677.9" class="st2" width="143.7" height="45.9"/>
	<rect id="XMLID_74_" x="1332.9" y="748.5" class="st2" width="143.7" height="45.9"/>
	<rect id="XMLID_73_" x="1332.9" y="819.1" class="st2" width="143.7" height="45.9"/>
	<rect id="XMLID_72_" x="1332.9" y="889.6" class="st2" width="143.7" height="45.9"/>
	<rect id="XMLID_71_" x="1332.9" y="960.2" class="st2" width="143.7" height="45.9"/>
	<rect id="XMLID_69_" x="1332.9" y="324.9" class="st2" width="143.7" height="45"/>
	<rect id="XMLID_68_" x="1332.9" y="395.5" class="st2" width="143.7" height="45.9"/>
	<rect id="XMLID_67_" x="1332.9" y="466.1" class="st2" width="143.7" height="45.9"/>
	<rect id="XMLID_66_" x="1332.9" y="536.7" class="st2" width="143.7" height="45.9"/>
	<rect id="XMLID_113_" x="2048.8" y="608.2" class="st2" width="143.7" height="44.1"/>
	<rect id="XMLID_112_" x="2048.8" y="678.8" class="st2" width="143.7" height="45.9"/>
	<rect id="XMLID_111_" x="2048.8" y="749.3" class="st2" width="143.7" height="45.9"/>
	<rect id="XMLID_110_" x="2048.8" y="819.9" class="st2" width="143.7" height="45.9"/>
	<rect id="XMLID_109_" x="2048.8" y="890.5" class="st2" width="143.7" height="45.9"/>
	<rect id="XMLID_108_" x="2048.8" y="961.1" class="st2" width="143.7" height="45.9"/>
	<rect id="XMLID_106_" x="2048.8" y="396.4" class="st2" width="143.7" height="45.9"/>
	<rect id="XMLID_105_" x="2048.8" y="467" class="st2" width="143.7" height="45.9"/>
	<rect id="XMLID_104_" x="2048.8" y="537.6" class="st2" width="143.7" height="45.9"/>
	<rect id="XMLID_65_" x="1153.9" y="608.2" class="st2" width="143.7" height="44.1"/>
	<rect id="XMLID_64_" x="1153.9" y="678.8" class="st2" width="143.7" height="45.9"/>
	<rect id="XMLID_63_" x="1153.9" y="749.3" class="st2" width="143.7" height="45.9"/>
	<rect id="XMLID_62_" x="1153.9" y="819.9" class="st2" width="143.7" height="45.9"/>
	<rect id="XMLID_61_" x="1153.9" y="890.5" class="st2" width="143.7" height="45.9"/>
	<rect id="XMLID_60_" x="1153.9" y="961.1" class="st2" width="143.7" height="45.9"/>
	<rect id="XMLID_102_" x="1869.8" y="607.3" class="st2" width="143.7" height="44.1"/>
	<rect id="XMLID_101_" x="1869.8" y="677.9" class="st2" width="143.7" height="45.9"/>
	<rect id="XMLID_100_" x="1869.8" y="748.5" class="st2" width="143.7" height="45.9"/>
	<rect id="XMLID_99_" x="1869.8" y="819.1" class="st2" width="143.7" height="45.9"/>
	<rect id="XMLID_98_" x="1869.8" y="889.6" class="st2" width="143.7" height="45.9"/>
	<rect id="XMLID_97_" x="1869.8" y="960.2" class="st2" width="143.7" height="45.9"/>
	<rect id="XMLID_59_" x="1153.9" y="467" class="st2" width="143.7" height="45.9"/>
	<rect id="XMLID_58_" x="1153.9" y="537.6" class="st2" width="143.7" height="45.9"/>
	<rect id="XMLID_95_" x="1690.8" y="608.2" class="st2" width="143.7" height="44.1"/>
	<rect id="XMLID_94_" x="1690.8" y="678.8" class="st2" width="143.7" height="45.9"/>
	<rect id="XMLID_93_" x="1690.8" y="749.3" class="st2" width="143.7" height="45.9"/>
	<rect id="XMLID_92_" x="1690.8" y="819.9" class="st2" width="143.7" height="45.9"/>
	<rect id="XMLID_91_" x="1690.8" y="890.5" class="st2" width="143.7" height="45.9"/>
	<rect id="XMLID_90_" x="1690.8" y="961.1" class="st2" width="143.7" height="45.9"/>
	<rect id="XMLID_89_" x="1690.8" y="467" class="st2" width="143.7" height="45.9"/>
	<rect id="XMLID_70_" x="1690.8" y="537.6" class="st2" width="143.7" height="45.9"/>
	<rect id="XMLID_133_" x="2406.7" y="608.2" class="st2" width="143.7" height="44.1"/>
	<rect id="XMLID_132_" x="2406.7" y="678.8" class="st2" width="143.7" height="45.9"/>
	<rect id="XMLID_131_" x="2406.7" y="749.3" class="st2" width="143.7" height="45.9"/>
	<rect id="XMLID_130_" x="2406.7" y="819.9" class="st2" width="143.7" height="45.9"/>
	<rect id="XMLID_129_" x="2406.7" y="890.5" class="st2" width="143.7" height="45.9"/>
	<rect id="XMLID_128_" x="2406.7" y="961.1" class="st2" width="143.7" height="45.9"/>
	<rect id="XMLID_125_" x="2406.7" y="537.6" class="st2" width="143.7" height="45.9"/>
	<rect id="XMLID_53_" x="795.9" y="819.9" class="st2" width="143.7" height="45.9"/>
	<rect id="XMLID_52_" x="795.9" y="890.5" class="st2" width="143.7" height="45.9"/>
	<rect id="XMLID_51_" x="795.9" y="961.1" class="st2" width="143.7" height="45.9"/>
	<rect id="XMLID_48_" x="617" y="608.2" class="st2" width="143.7" height="44.1"/>
	<rect id="XMLID_47_" x="617" y="678.8" class="st2" width="143.7" height="45.9"/>
	<rect id="XMLID_46_" x="617" y="749.3" class="st2" width="143.7" height="45.9"/>
	<rect id="XMLID_45_" x="617" y="819.9" class="st2" width="143.7" height="45.9"/>
	<rect id="XMLID_44_" x="617" y="890.5" class="st2" width="143.7" height="45.9"/>
	<rect id="XMLID_43_" x="617" y="961.1" class="st2" width="143.7" height="45.9"/>
	<rect id="XMLID_57_" x="974.9" y="678.8" class="st2" width="143.7" height="45.9"/>
	<rect id="XMLID_56_" x="974.9" y="749.3" class="st2" width="143.7" height="45.9"/>
	<rect id="XMLID_55_" x="974.9" y="819.9" class="st2" width="143.7" height="45.9"/>
	<rect id="XMLID_50_" x="974.9" y="890.5" class="st2" width="143.7" height="45.9"/>
	<rect id="XMLID_49_" x="974.9" y="961.1" class="st2" width="143.7" height="45.9"/>
	<g id="XMLID_11_">
		<rect id="XMLID_42_" x="617" y="537.6" class="st2" width="143.7" height="45.9"/>
	</g>
</g>
</svg>
